<svg xmlns="http://www.w3.org/2000/svg" width="20" height="20" viewBox="0 0 20 20" fill="none">
  <path fill-rule="evenodd" clip-rule="evenodd" d="M3.70861 12.8752C4.49313 12.0906 5.55718 11.6499 6.66667 11.6499H13.3333C14.4428 11.6499 15.5069 12.0906 16.2914 12.8752C17.0759 13.6597 17.5167 14.7237 17.5167 15.8332V17.4999C17.5167 17.9693 17.1361 18.3499 16.6667 18.3499C16.1972 18.3499 15.8167 17.9693 15.8167 17.4999V15.8332C15.8167 15.1746 15.555 14.543 15.0893 14.0773C14.6236 13.6115 13.992 13.3499 13.3333 13.3499H6.66667C6.00805 13.3499 5.3764 13.6115 4.91069 14.0773C4.44497 14.543 4.18334 15.1746 4.18334 15.8332V17.4999C4.18334 17.9693 3.80278 18.3499 3.33334 18.3499C2.8639 18.3499 2.48334 17.9693 2.48334 17.4999V15.8332C2.48334 14.7237 2.92408 13.6597 3.70861 12.8752Z" fill="white"/>
  <path fill-rule="evenodd" clip-rule="evenodd" d="M10 3.3499C8.62852 3.3499 7.51669 4.46173 7.51669 5.83324C7.51669 7.20474 8.62852 8.31657 10 8.31657C11.3715 8.31657 12.4834 7.20474 12.4834 5.83324C12.4834 4.46173 11.3715 3.3499 10 3.3499ZM5.81669 5.83324C5.81669 3.52284 7.68963 1.6499 10 1.6499C12.3104 1.6499 14.1834 3.52284 14.1834 5.83324C14.1834 8.14363 12.3104 10.0166 10 10.0166C7.68963 10.0166 5.81669 8.14363 5.81669 5.83324Z" fill="white"/>
</svg>